Coordinates
version=1
nRows=14
nColumns=36
inDegrees=yes

Units are S.I. units (second, meters, Newtons, ...)
If the header above contains a line with 'inDegrees', this indicates whether rotational values are in degrees (yes) or radians (no).

endheader
time	pelvis_tilt	pelvis_list	pelvis_rotation	pelvis_tx	pelvis_ty	pelvis_tz	hip_flexion_r	hip_adduction_r	hip_rotation_r	knee_angle_r	knee_angle_r_beta	ankle_angle_r	subtalar_angle_r	mtp_angle_r	hip_flexion_l	hip_adduction_l	hip_rotation_l	knee_angle_l	knee_angle_l_beta	ankle_angle_l	subtalar_angle_l	mtp_angle_l	lumbar_extension	lumbar_bending	lumbar_rotation	arm_flex_r	arm_add_r	arm_rot_r	elbow_flex_r	pro_sup_r	arm_flex_l	arm_add_l	arm_rot_l	elbow_flex_l	pro_sup_l
      0.00000000	     10.50234462	      8.93329532	      6.08228307	     -0.04209261	      1.21328116	      0.13946325	    -18.61808370	     -7.00648823	      3.96098093	      0.27643245	      0.00482466	     10.87566040	    -10.24056078	     -5.84428072	    -11.88654175	      1.94502129	     23.52998482	      0.42768079	      0.00746444	    -18.82213851	    -34.66459161	     -5.84428072	    -31.15222090	    -10.29015057	      0.66736583	      2.32919355	     -2.30165636	     -0.02621481	     29.19829749	     75.35281134	     25.30203843	     -7.03562594	     49.30325436	     18.22489707	     61.90978008
      0.01666670	      8.69587321	      8.66482808	      5.29095355	     -0.04046868	      1.21250373	      0.13886895	    -16.70477673	     -7.40731059	      5.19592250	      0.29901230	      0.00521875	     12.05626836	     -9.50261499	     -6.05301902	     -9.79472708	      2.52600342	     23.83220764	      0.32144655	      0.00561030	    -19.83200440	    -34.63940581	     -6.05301902	    -28.48860431	     -9.92871841	      0.44685327	      2.69177737	     -2.64486466	      2.89265258	     27.46804129	     75.41922893	     24.41468732	     -7.33433337	     50.43036045	     18.50550023	     62.86990102
      0.03333330	      7.62335696	      9.33839010	      4.45841034	     -0.03982152	      1.21319642	      0.13977557	    -15.53064632	     -8.57955375	      4.00260491	      0.25599332	      0.00446793	     11.34076884	     -8.46860643	     -6.21841990	     -8.70041379	      3.36426596	     22.78057712	      0.27086407	      0.00472747	    -20.66846829	    -34.62036872	     -6.21841990	    -27.12623349	    -11.16491984	      0.36966044	      2.83172414	     -2.80872338	      5.38484918	     27.22073607	     75.57465611	     24.59375784	     -8.03852822	     53.36634290	     18.27915732	     64.25693259
      0.05000000	      7.37692883	      9.87320961	      3.93687441	     -0.04027708	      1.20949559	      0.14046615	    -15.16005132	     -9.37886880	      3.62075163	      0.22583364	      0.00394154	     11.76917941	     -7.34039657	     -6.58422957	     -8.58683183	      4.01553176	     22.22857170	      0.23329459	      0.00407176	    -20.55379548	    -34.61528849	     -6.58422957	    -26.93867812	    -12.05001809	      0.73476641	      2.86743838	     -2.89036949	      7.03023828	     26.94094108	     74.70587864	     25.27779295	     -8.16699660	     57.35235624	     17.73601648	     65.33335066
      0.06666670	      7.30894688	     10.00243099	      3.49228068	     -0.04025710	      1.21330879	      0.14131652	    -14.98250558	     -9.62832274	      3.34763180	      0.20292005	      0.00354162	     11.64841956	     -6.70973183	     -6.89348190	     -8.52297123	      4.23805307	     21.76377964	      0.20661309	      0.00360608	    -20.52844572	    -34.61064437	     -6.89348190	    -27.00641679	    -12.26737870	      0.92289065	      3.00720396	     -2.88553817	      7.78151978	     26.91883523	     73.57403948	     25.49768630	     -7.97213117	     58.79132343	     17.20739170	     65.27732560
      0.08333330	      7.11956889	     10.23417327	      3.30304759	     -0.04087841	      1.20894216	      0.14165529	    -14.63094070	     -9.91790656	      3.77836978	      0.18797089	      0.00328071	     11.79301026	     -6.70197421	     -7.02719959	     -8.26767210	      4.56910309	     21.44119797	      0.19388835	      0.00338399	    -20.35890400	    -34.61186533	     -7.02719959	    -26.98320470	    -12.61396057	      1.22562607	      3.01317309	     -2.65608046	      7.28792159	     27.06965464	     72.36328414	     25.64927814	     -7.75776261	     58.37960348	     17.02500822	     64.61289907
      0.10000000	      6.91436727	     10.39666736	      3.28823298	     -0.04230383	      1.20971983	      0.14155204	    -14.34716381	    -10.16285017	      3.87746047	      0.18032995	      0.00314735	     12.25407983	     -6.00795695	     -7.16887573	     -7.98739546	      4.79706480	     21.42309570	      0.18720036	      0.00326726	    -20.31651848	    -34.61308568	     -7.16887573	    -26.91261646	    -12.79319473	      1.31819637	      3.00034528	     -2.42325700	      6.68109113	     27.36914513	     72.11140067	     25.74235988	     -7.58721326	     57.79139435	     16.91193025	     64.48272265
      0.11666670	      6.97288460	     10.46489534	      3.37818536	     -0.04220516	      1.20911743	      0.14162630	    -14.41394449	    -10.23055328	      3.87535026	      0.17414553	      0.00303941	     12.60571944	     -5.35389669	     -7.33187022	     -8.01140100	      4.87266731	     21.43683570	      0.18498956	      0.00322868	    -20.36087830	    -34.61110331	     -7.33187022	    -27.18187830	    -12.82673118	      1.74806161	      2.72683460	     -1.87767933	      2.41273515	     27.97627699	     81.46426496	     25.92090686	     -7.28261749	     55.79851531	     17.05046775	     68.53068194
      0.13333330	      6.90155027	     10.47561789	      3.28675682	     -0.04310978	      1.20806095	      0.14213282	    -14.32778021	    -10.29358292	      4.09233766	      0.17165957	      0.00299602	     12.35791919	     -5.74315074	     -7.36340639	     -7.87499596	      4.89467428	     21.30378920	      0.18346134	      0.00320200	    -20.45715577	    -34.61309081	     -7.36340639	    -27.14677741	    -12.88167652	      1.97055937	      2.74888108	     -1.70677679	      2.34422166	     28.31700509	     79.13289318	     25.79310287	     -7.13235661	     54.05928083	     17.34877677	     67.35925534
      0.15000000	      6.97600842	     10.50374394	      3.24649997	     -0.03996104	      1.20885061	      0.14287267	    -14.55128572	    -10.28640723	      3.87008834	      0.16909195	      0.00295121	     12.39767108	     -5.62193474	     -7.37489122	     -7.95182707	      4.89592694	     21.16296292	      0.18315820	      0.00319671	    -20.76472610	    -34.61692322	     -7.37489122	    -27.18906899	    -12.99797153	      2.20513084	      2.56902747	     -1.42898188	      1.34431917	     28.72996614	     79.67984570	     25.53576519	     -7.08263905	     51.67990165	     17.72745073	     67.61386766
      0.16666670	      6.80698661	     10.50943557	      3.20605331	     -0.04070578	      1.20655006	      0.14238183	    -14.42027355	    -10.29721815	      4.41536289	      0.16969069	      0.00296166	     12.17575852	     -6.40164359	     -7.36663140	     -7.83192679	      4.91007168	     21.04860757	      0.18623275	      0.00325037	    -20.89848597	    -34.61437978	     -7.36663140	    -26.96051920	    -13.04870769	      2.39991193	      2.42961952	     -1.27032353	      0.93006308	     29.16832641	     79.81440490	     25.29062798	     -7.01775025	     50.02995179	     17.99609965	     67.62545132
      0.18333330	      6.73752266	     10.52264519	      3.24046273	     -0.04077696	      1.20550548	      0.14189460	    -14.35687174	    -10.32206441	      4.36375738	      0.17029386	      0.00297219	     12.69503747	     -5.85534518	     -7.41055014	     -7.80225193	      4.91506692	     21.04991576	      0.18989571	      0.00331431	    -21.03246637	    -34.61983819	     -7.41055014	    -26.84712421	    -13.05648703	      2.42725274	      2.39183097	     -1.14836170	      0.82576796	     29.37978539	     79.19879503	     24.92506379	     -6.96056555	     47.42382215	     18.51761839	     67.74221884
      0.20000000	      6.70782247	     10.49410473	      3.30358483	     -0.03923219	      1.20927378	      0.14145273	    -14.38918996	    -10.27812446	      4.74667627	      0.16673835	      0.00291013	     12.62032391	     -6.29528570	     -7.42123719	     -7.79703897	      4.86433223	     21.00801776	      0.19103424	      0.00333418	    -21.17001734	    -34.61770090	     -7.42123719	    -26.77896171	    -12.98851851	      2.40686505	      2.33123105	     -1.01234402	      0.68759850	     29.64414703	     78.75426521	     24.68996189	     -7.07520877	     46.86182289	     19.12239034	     67.59874562
      0.21666670	      6.50383441	     10.40050626	      3.20702608	     -0.04103343	      1.20801486	      0.14138617	    -14.17348705	    -10.23898055	      5.17339954	      0.16689256	      0.00291282	     12.28397740	     -7.06170083	     -7.43827506	     -7.58861942	      4.80698559	     20.78628097	      0.19338793	      0.00337526	    -21.22240405	    -34.61984600	     -7.43827506	    -26.44132693	    -12.97225719	      2.55792198	      2.30328945	     -0.96528962	      0.99030973	     29.69819527	     77.72637616	     24.46767963	     -6.79657309	     45.38108055	     18.72869504	     67.15181069
